<svg width="32" height="32" viewBox="0 0 32 32" fill="none" xmlns="http://www.w3.org/2000/svg">
<circle cx="16" cy="16" r="16" fill="#F56438"/>
<g clip-path="url(#clip0_66_785)">
<path d="M21.1808 15.6722L21.1808 15.6722L17.8475 12.3388L17.8475 12.3388L17.8462 12.3376C17.7376 12.2327 17.592 12.1746 17.441 12.1759C17.2899 12.1772 17.1454 12.2378 17.0385 12.3446C16.9317 12.4515 16.8711 12.596 16.8698 12.7471C16.8685 12.8981 16.9266 13.0437 17.0315 13.1524L17.0315 13.1524L17.0327 13.1536L19.3825 15.5034H11.2496C11.0968 15.5034 10.9503 15.5641 10.8422 15.6721C10.7341 15.7802 10.6734 15.9267 10.6734 16.0796C10.6734 16.2324 10.7341 16.3789 10.8422 16.487C10.9503 16.595 11.0968 16.6557 11.2496 16.6557H19.3825L17.0333 19.0049C16.9786 19.0579 16.9349 19.1213 16.9048 19.1913C16.8746 19.2616 16.8588 19.3372 16.8581 19.4137C16.8574 19.4902 16.872 19.5661 16.901 19.6369C16.9299 19.7077 16.9727 19.7721 17.0268 19.8262C17.0809 19.8803 17.1453 19.9231 17.2161 19.952C17.2869 19.981 17.3628 19.9956 17.4393 19.9949C17.5158 19.9942 17.5914 19.9783 17.6617 19.9481C17.7317 19.9181 17.795 19.8744 17.8481 19.8197L21.1808 16.4869L21.1808 16.4869C21.2889 16.3789 21.3495 16.2323 21.3495 16.0796C21.3495 15.9268 21.2889 15.7802 21.1808 15.6722Z" fill="white" stroke="white" stroke-width="0.2"/>
</g>
<defs>
<clipPath id="clip0_66_785">
<rect width="11.4286" height="11.4286" fill="white" transform="translate(10.2969 10.3662)"/>
</clipPath>
</defs>
</svg>
