<svg width="46" height="46" viewBox="0 0 46 46" fill="none" xmlns="http://www.w3.org/2000/svg">
<rect width="46" height="46" rx="23" fill="white"/>
<path fill-rule="evenodd" clip-rule="evenodd" d="M24.5575 14.6285C23.8281 13.5127 22.1726 13.5127 21.4431 14.6285L17.7604 20.2621L14.9455 18.6673C13.5353 17.8682 11.8397 19.1204 12.2217 20.6787L14.1341 28.4799C14.2202 28.8312 14.5391 29.0786 14.9057 29.0786H31.0949C31.4616 29.0786 31.7805 28.8312 31.8667 28.4799L33.779 20.6787C34.161 19.1204 32.4654 17.8683 31.0551 18.6673L28.2402 20.2621L24.5575 14.6285ZM23.2227 15.476C23.1186 15.3166 22.882 15.3166 22.7779 15.476L18.6864 21.7348C18.4574 22.0852 17.99 22.1971 17.6234 21.9894L14.1542 20.0239C13.9527 19.9097 13.7105 20.0886 13.7651 20.3112L15.5307 27.5138H30.47L32.2356 20.3112C32.2901 20.0886 32.048 19.9097 31.8465 20.0239L28.3772 21.9894C28.0106 22.1971 27.5433 22.0852 27.3143 21.7348L23.2227 15.476Z" fill="#092729"/>
<path d="M15.5908 30.6434C15.1523 30.6434 14.7969 30.9938 14.7969 31.4259C14.7969 31.858 15.1523 32.2083 15.5908 32.2083H30.4101C30.8485 32.2083 31.204 31.858 31.204 31.4259C31.204 30.9938 30.8485 30.6434 30.4101 30.6434H15.5908Z" fill="#092729"/>
</svg>
