<svg width="24" height="24" viewBox="0 0 24 24" fill="none" xmlns="http://www.w3.org/2000/svg">
<g id="pin (2) 1">
<g id="Group">
<g id="Group_2">
<path id="Vector" d="M12.0025 5.16016C9.54567 5.16016 7.54688 7.15895 7.54688 9.61577C7.54688 12.0726 9.54567 14.0714 12.0025 14.0714C14.4593 14.0714 16.4581 12.0726 16.4581 9.61577C16.4581 7.15895 14.4593 5.16016 12.0025 5.16016ZM12.0025 12.1953C10.5801 12.1953 9.42291 11.0381 9.42291 9.61577C9.42291 8.19339 10.5801 7.03619 12.0025 7.03619C13.4249 7.03619 14.5821 8.19339 14.5821 9.61577C14.5821 11.0381 13.4249 12.1953 12.0025 12.1953Z" fill="#092729"/>
</g>
</g>
<g id="Group_3">
<g id="Group_4">
<path id="Vector_2" d="M12.0054 0C6.70378 0 2.39062 4.3132 2.39062 9.61477V9.88055C2.39062 12.5618 3.92784 15.6863 6.95972 19.1671C9.15759 21.6905 11.3248 23.45 11.4159 23.5237L12.0054 24L12.5949 23.5237C12.6861 23.45 14.8532 21.6905 17.0511 19.1671C20.0829 15.6863 21.6202 12.5618 21.6202 9.88059V9.61481C21.6202 4.3132 17.307 0 12.0054 0ZM19.7441 9.88059C19.7441 14.4118 13.9058 19.8968 12.0054 21.5619C10.1045 19.8963 4.26666 14.4114 4.26666 9.88059V9.61481C4.26666 5.34769 7.73827 1.87608 12.0054 1.87608C16.2725 1.87608 19.7441 5.34769 19.7441 9.61481V9.88059Z" fill="#092729"/>
</g>
</g>
</g>
</svg>
