<svg width="46" height="46" viewBox="0 0 46 46" fill="none" xmlns="http://www.w3.org/2000/svg">
<rect width="46" height="46" rx="23" fill="#092729"/>
<path d="M23.0007 18.9654C23.1334 18.9647 23.265 18.9901 23.3879 19.0403C23.5108 19.0905 23.6226 19.1645 23.7168 19.2579L29.7688 25.3099C29.9587 25.4998 30.0654 25.7574 30.0654 26.026C30.0654 26.2946 29.9587 26.5522 29.7688 26.7422C29.5789 26.9321 29.3213 27.0388 29.0526 27.0388C28.784 27.0388 28.5264 26.9321 28.3365 26.7422L23.0007 21.3963L17.6649 26.7321C17.4719 26.8973 17.2237 26.9837 16.9699 26.9739C16.716 26.9641 16.4752 26.8588 16.2956 26.6792C16.1159 26.4996 16.0107 26.2588 16.0009 26.0049C15.9911 25.751 16.0774 25.5028 16.2427 25.3099L22.2946 19.2579C22.4825 19.0716 22.7361 18.9665 23.0007 18.9654Z" fill="white"/>
</svg>
