<svg width="46" height="46" viewBox="0 0 46 46" fill="none" xmlns="http://www.w3.org/2000/svg">
<rect width="46" height="46" rx="23" fill="white"/>
<path d="M19.7139 22.2253H21.1449L20.4294 20.1924L19.7139 22.2253Z" fill="#092729"/>
<path d="M23.0565 11.5393C11.1527 11.4766 5.6334 24.0443 16.459 29.627C16.2687 30.283 15.2365 33.8473 15.1954 34.1273C15.166 34.3465 15.3327 34.5298 15.6034 34.4359C15.9941 34.3813 20.1341 31.4732 20.8507 30.9683C38.0167 33.0228 41.3969 12.3279 23.0565 11.5393ZM16.9067 24.0648C16.8833 24.9649 15.4983 24.9683 15.4739 24.0648V19.8086H14.3559C13.43 19.7852 13.4282 18.4296 14.3559 18.4056H18.0245C18.9509 18.4301 18.9522 19.7839 18.0245 19.8086H16.9065L16.9067 24.0648ZM22.9281 24.641C22.6065 24.8105 21.9845 24.7694 21.8764 24.4233L21.5215 23.4946H19.3367L18.9818 24.4239C18.8742 24.7691 18.2517 24.8107 17.9306 24.641C17.733 24.55 17.5432 24.2993 17.7608 23.6236L19.4745 19.1128C19.8252 18.1878 21.0314 18.1836 21.3842 19.1136L23.0973 23.6223C23.3155 24.2993 23.1257 24.55 22.9281 24.641ZM26.5491 24.6443H24.2504C23.8719 24.6443 23.5638 24.3498 23.5638 23.9876V19.1217C23.5885 18.1787 25.0013 18.1758 25.0265 19.1217V23.3308H26.5491C27.4534 23.3532 27.4555 24.6215 26.5491 24.6443ZM32.1576 24.1048C32.0939 24.719 31.2307 24.9454 30.8763 24.4371L29.1962 22.211L28.9476 22.4596V24.0227C28.9239 24.9657 27.5392 24.9693 27.5145 24.0229V19.1217C27.5394 18.1779 28.9221 18.1761 28.9473 19.1217V20.6617L30.9462 18.6628C31.1859 18.4197 31.603 18.4719 31.8367 18.715C32.0798 18.9462 32.1326 19.3679 31.8892 19.6055L30.2564 21.2381L32.02 23.5744C32.1352 23.7255 32.1846 23.9169 32.1576 24.1048Z" fill="#092729"/>
</svg>
