<svg width="46" height="46" viewBox="0 0 46 46" fill="none" xmlns="http://www.w3.org/2000/svg">
<rect width="46" height="46" rx="23" fill="white"/>
<g clip-path="url(#clip0_66_941)">
<path fill-rule="evenodd" clip-rule="evenodd" d="M17.3125 23C17.3125 21.6545 16.2205 20.5625 14.875 20.5625H13.25C11.9045 20.5625 10.8125 21.6545 10.8125 23V26.25C10.8125 27.5955 11.9045 28.6875 13.25 28.6875H14.875C16.2205 28.6875 17.3125 27.5955 17.3125 26.25V23ZM15.6875 23V26.25C15.6875 26.6985 15.3235 27.0625 14.875 27.0625H13.25C12.8015 27.0625 12.4375 26.6985 12.4375 26.25V23C12.4375 22.5515 12.8015 22.1875 13.25 22.1875H14.875C15.3235 22.1875 15.6875 22.5515 15.6875 23Z" fill="#092729"/>
<path fill-rule="evenodd" clip-rule="evenodd" d="M35.1875 23C35.1875 21.6545 34.0955 20.5625 32.75 20.5625H31.125C29.7795 20.5625 28.6875 21.6545 28.6875 23V26.25C28.6875 27.5955 29.7795 28.6875 31.125 28.6875H32.75C34.0955 28.6875 35.1875 27.5955 35.1875 26.25V23ZM33.5625 23V26.25C33.5625 26.6985 33.1985 27.0625 32.75 27.0625H31.125C30.6765 27.0625 30.3125 26.6985 30.3125 26.25V23C30.3125 22.5515 30.6765 22.1875 31.125 22.1875H32.75C33.1985 22.1875 33.5625 22.5515 33.5625 23Z" fill="#092729"/>
<path fill-rule="evenodd" clip-rule="evenodd" d="M32.75 21.375V20.5625C32.75 15.1813 28.3812 10.8125 23 10.8125C17.6188 10.8125 13.25 15.1813 13.25 20.5625V21.375C13.25 21.8235 13.614 22.1875 14.0625 22.1875C14.511 22.1875 14.875 21.8235 14.875 21.375V20.5625C14.875 16.0783 18.5158 12.4375 23 12.4375C27.4842 12.4375 31.125 16.0783 31.125 20.5625V21.375C31.125 21.8235 31.489 22.1875 31.9375 22.1875C32.386 22.1875 32.75 21.8235 32.75 21.375Z" fill="#092729"/>
<path fill-rule="evenodd" clip-rule="evenodd" d="M26.25 32.75C26.25 31.4045 25.158 30.3125 23.8125 30.3125H22.1875C20.842 30.3125 19.75 31.4045 19.75 32.75C19.75 34.0955 20.842 35.1875 22.1875 35.1875H23.8125C25.158 35.1875 26.25 34.0955 26.25 32.75ZM24.625 32.75C24.625 33.1985 24.261 33.5625 23.8125 33.5625H22.1875C21.739 33.5625 21.375 33.1985 21.375 32.75C21.375 32.3015 21.739 31.9375 22.1875 31.9375H23.8125C24.261 31.9375 24.625 32.3015 24.625 32.75Z" fill="#092729"/>
<path fill-rule="evenodd" clip-rule="evenodd" d="M13.2612 28.0082C13.2612 28.0082 14.1404 33.5625 20.5624 33.5625C21.0109 33.5625 21.3749 33.1985 21.3749 32.75C21.3749 32.3015 21.0109 31.9375 20.5624 31.9375C15.6085 31.9375 14.8635 27.7417 14.8635 27.7417C14.7904 27.2989 14.3711 26.9999 13.9291 27.0739C13.4863 27.147 13.1873 27.5662 13.2612 28.0082Z" fill="#092729"/>
</g>
<defs>
<clipPath id="clip0_66_941">
<rect width="26" height="26" fill="white" transform="translate(10 10)"/>
</clipPath>
</defs>
</svg>
